<svg width="351" height="126" viewBox="0 0 351 126" fill="none" xmlns="http://www.w3.org/2000/svg">
<g clip-path="url(#clip0_149_227)">
<path d="M28.8008 41.9531L64.9531 62.8125V67.0312L57.3945 62.6367L24.0547 43.418V40.4883L57.3945 21.2695L64.9531 16.875V21.0938L28.8008 41.9531Z" fill="#F7F7F7"/>
<path d="M154.719 42.0117C154.719 49.707 152.824 56.7383 149.035 63.1055C145.246 69.4336 140.168 74.4922 133.801 78.2812C127.473 82.0703 120.441 83.9648 112.707 83.9648H79.0156V0H112.707C120.441 0 127.473 1.89453 133.801 5.68359C140.168 9.47266 145.246 14.5508 149.035 20.918C152.824 27.2461 154.719 34.2773 154.719 42.0117ZM93.0195 80.2148H107.141C112.609 80.2148 117.434 79.1797 121.613 77.1094C125.793 75.0391 129.289 72.2266 132.102 68.6719C134.953 65.1172 137.102 61.0352 138.547 56.4258C139.992 51.8164 140.715 46.9922 140.715 41.9531C140.715 34.9219 139.367 28.5156 136.672 22.7344C134.016 16.9531 130.188 12.3438 125.188 8.90625C120.188 5.42969 114.172 3.69141 107.141 3.69141H93.0195V80.2148Z" fill="#F7F7F7"/>
<path d="M166.438 83.9648V0H180.441V83.9648H166.438Z" fill="#F7F7F7"/>
<path d="M237.922 67.3828L269.328 0H273.43L234.289 83.9648H230.188L191.047 0H206.457L237.922 67.3828Z" fill="#F7F7F7"/>
<path d="M321.359 41.9531L285.266 21.0938V16.875L292.824 21.2695L326.105 40.4883V43.418L292.824 62.6367L285.266 67.0312V62.8125L321.359 41.9531Z" fill="#F7F7F7"/>
<path d="M12.4062 106.262C12.4062 108.835 12.1094 110.991 11.5156 112.73C10.9219 114.46 10.0365 115.767 8.85938 116.652C7.69271 117.527 6.23438 117.965 4.48438 117.965H0V95.1211H4.67188C6.36979 95.1211 7.79167 95.543 8.9375 96.3867C10.0833 97.2305 10.9479 98.4805 11.5312 100.137C12.1146 101.793 12.4062 103.835 12.4062 106.262ZM9.8125 106.387C9.8125 104.397 9.61979 102.73 9.23438 101.387C8.84896 100.043 8.27083 99.0326 7.5 98.3555C6.72917 97.6784 5.75521 97.3398 4.57812 97.3398H2.48438V115.73H4.39062C6.27604 115.73 7.65104 114.949 8.51562 113.387C9.38021 111.814 9.8125 109.48 9.8125 106.387Z" fill="#F7F7F7"/>
<path d="M20.8281 100.527C21.9948 100.527 22.9531 100.866 23.7031 101.543C24.4635 102.22 25.026 103.132 25.3906 104.277C25.7656 105.423 25.9531 106.699 25.9531 108.105V109.809H17.7812C17.8021 111.944 18.1302 113.548 18.7656 114.621C19.4115 115.694 20.3802 116.23 21.6719 116.23C22.2865 116.23 22.8906 116.137 23.4844 115.949C24.0781 115.762 24.6927 115.46 25.3281 115.043V117.199C24.7344 117.564 24.1146 117.835 23.4688 118.012C22.8229 118.189 22.1354 118.277 21.4062 118.277C19.9792 118.277 18.8229 117.897 17.9375 117.137C17.0521 116.366 16.4062 115.319 16 113.996C15.6042 112.663 15.4062 111.158 15.4062 109.48C15.4062 107.564 15.6094 105.939 16.0156 104.605C16.4219 103.272 17.026 102.262 17.8281 101.574C18.6406 100.876 19.6406 100.527 20.8281 100.527ZM20.8281 102.496C19.9219 102.496 19.2135 102.939 18.7031 103.824C18.1927 104.699 17.8958 106.053 17.8125 107.887H23.7031C23.7031 106.918 23.599 106.027 23.3906 105.215C23.1927 104.392 22.8802 103.736 22.4531 103.246C22.0365 102.746 21.4948 102.496 20.8281 102.496ZM24.9688 93.4648V93.7461C24.7604 94.0898 24.4844 94.4805 24.1406 94.918C23.7969 95.3451 23.4219 95.7878 23.0156 96.2461C22.6094 96.694 22.2031 97.1211 21.7969 97.5273C21.3906 97.9336 21.026 98.2826 20.7031 98.5742H19.1719V98.2148C19.5885 97.6419 19.974 97.0846 20.3281 96.543C20.6823 96.0013 21.0052 95.4753 21.2969 94.9648C21.5885 94.444 21.8542 93.944 22.0938 93.4648H24.9688Z" fill="#F7F7F7"/>
<path d="M35.5625 100.496C37.2083 100.496 38.4531 101.236 39.2969 102.715C40.151 104.184 40.5781 106.397 40.5781 109.355C40.5781 111.262 40.3854 112.882 40 114.215C39.625 115.538 39.0729 116.548 38.3438 117.246C37.6146 117.934 36.7292 118.277 35.6875 118.277C35.1042 118.277 34.5625 118.168 34.0625 117.949C33.5625 117.72 33.1198 117.402 32.7344 116.996C32.349 116.579 32.026 116.095 31.7656 115.543H31.6562C31.6771 115.96 31.6979 116.361 31.7188 116.746C31.75 117.132 31.7656 117.496 31.7656 117.84V125.621H29.3594V100.809H31.3125L31.6094 103.324H31.75C32.0417 102.689 32.375 102.163 32.75 101.746C33.1354 101.329 33.5625 101.017 34.0312 100.809C34.5 100.6 35.0104 100.496 35.5625 100.496ZM35.0469 102.574C34.3177 102.574 33.7083 102.803 33.2188 103.262C32.7396 103.72 32.375 104.413 32.125 105.34C31.8854 106.257 31.7656 107.413 31.7656 108.809V109.637C31.7656 111.116 31.8854 112.34 32.125 113.309C32.375 114.277 32.7448 114.996 33.2344 115.465C33.7344 115.934 34.349 116.168 35.0781 116.168C35.7448 116.168 36.3021 115.928 36.75 115.449C37.2083 114.97 37.5521 114.23 37.7812 113.23C38.0104 112.23 38.125 110.949 38.125 109.387C38.125 107.126 37.8854 105.428 37.4062 104.293C36.9375 103.147 36.151 102.574 35.0469 102.574Z" fill="#F7F7F7"/>
<path d="M48.6094 100.496C50.1927 100.496 51.3229 101.001 52 102.012C52.6771 103.022 53.0156 104.486 53.0156 106.402V117.965H51.1875L50.8281 115.527H50.7656C50.4948 116.111 50.1719 116.611 49.7969 117.027C49.4219 117.434 48.9948 117.746 48.5156 117.965C48.0365 118.173 47.4844 118.277 46.8594 118.277C45.974 118.277 45.25 118.043 44.6875 117.574C44.125 117.105 43.7083 116.491 43.4375 115.73C43.1667 114.96 43.0312 114.132 43.0312 113.246C43.0312 111.548 43.5208 110.23 44.5 109.293C45.4792 108.355 46.8698 107.845 48.6719 107.762L50.625 107.637V106.465C50.625 105.09 50.4375 104.085 50.0625 103.449C49.6875 102.814 49.0833 102.496 48.25 102.496C47.7708 102.496 47.2656 102.579 46.7344 102.746C46.2135 102.913 45.6458 103.178 45.0312 103.543L44.2656 101.73C44.9115 101.314 45.599 101.007 46.3281 100.809C47.0677 100.6 47.8281 100.496 48.6094 100.496ZM50.6562 109.402L49.0625 109.512C47.8542 109.585 46.9531 109.928 46.3594 110.543C45.776 111.147 45.4844 112.027 45.4844 113.184C45.4844 114.257 45.6771 115.048 46.0625 115.559C46.4479 116.069 46.9792 116.324 47.6562 116.324C48.6042 116.324 49.3385 115.866 49.8594 114.949C50.3906 114.033 50.6562 112.767 50.6562 111.152V109.402Z" fill="#F7F7F7"/>
<path d="M63.3438 100.496C64.6979 100.496 65.724 100.97 66.4219 101.918C67.1198 102.866 67.4688 104.319 67.4688 106.277V117.965H65.0625V106.762C65.0625 105.376 64.8802 104.34 64.5156 103.652C64.1615 102.965 63.599 102.621 62.8281 102.621C61.7031 102.621 60.8802 103.121 60.3594 104.121C59.8385 105.121 59.5781 106.725 59.5781 108.934V117.965H57.1719V100.809H59.0938L59.3594 103.293H59.5156C59.7552 102.72 60.0625 102.225 60.4375 101.809C60.8125 101.392 61.2448 101.069 61.7344 100.84C62.224 100.611 62.7604 100.496 63.3438 100.496Z" fill="#F7F7F7"/>
<path d="M77.7812 100.496C79.1354 100.496 80.1615 100.97 80.8594 101.918C81.5573 102.866 81.9062 104.319 81.9062 106.277V117.965H79.5V106.762C79.5 105.376 79.3177 104.34 78.9531 103.652C78.599 102.965 78.0365 102.621 77.2656 102.621C76.1406 102.621 75.3177 103.121 74.7969 104.121C74.276 105.121 74.0156 106.725 74.0156 108.934V117.965H71.6094V100.809H73.5312L73.7969 103.293H73.9531C74.1927 102.72 74.5 102.225 74.875 101.809C75.25 101.392 75.6823 101.069 76.1719 100.84C76.6615 100.611 77.1979 100.496 77.7812 100.496Z" fill="#F7F7F7"/>
<path d="M90.6406 100.496C92.224 100.496 93.3542 101.001 94.0312 102.012C94.7083 103.022 95.0469 104.486 95.0469 106.402V117.965H93.2188L92.8594 115.527H92.7969C92.526 116.111 92.2031 116.611 91.8281 117.027C91.4531 117.434 91.026 117.746 90.5469 117.965C90.0677 118.173 89.5156 118.277 88.8906 118.277C88.0052 118.277 87.2812 118.043 86.7188 117.574C86.1562 117.105 85.7396 116.491 85.4688 115.73C85.1979 114.96 85.0625 114.132 85.0625 113.246C85.0625 111.548 85.5521 110.23 86.5312 109.293C87.5104 108.355 88.901 107.845 90.7031 107.762L92.6562 107.637V106.465C92.6562 105.09 92.4688 104.085 92.0938 103.449C91.7188 102.814 91.1146 102.496 90.2812 102.496C89.8021 102.496 89.2969 102.579 88.7656 102.746C88.2448 102.913 87.6771 103.178 87.0625 103.543L86.2969 101.73C86.9427 101.314 87.6302 101.007 88.3594 100.809C89.099 100.6 89.8594 100.496 90.6406 100.496ZM92.6875 109.402L91.0938 109.512C89.8854 109.585 88.9844 109.928 88.3906 110.543C87.8073 111.147 87.5156 112.027 87.5156 113.184C87.5156 114.257 87.7083 115.048 88.0938 115.559C88.4792 116.069 89.0104 116.324 89.6875 116.324C90.6354 116.324 91.3698 115.866 91.8906 114.949C92.4219 114.033 92.6875 112.767 92.6875 111.152V109.402Z" fill="#F7F7F7"/>
<path d="M102.594 125.652C100.958 125.652 99.6719 125.236 98.7344 124.402C97.7969 123.569 97.3281 122.402 97.3281 120.902C97.3281 119.725 97.6094 118.762 98.1719 118.012C98.7344 117.262 99.4583 116.762 100.344 116.512C99.9062 116.303 99.5469 115.991 99.2656 115.574C98.9948 115.158 98.8594 114.663 98.8594 114.09C98.8594 113.507 98.9948 112.975 99.2656 112.496C99.5469 112.017 99.9375 111.559 100.438 111.121C99.7708 110.725 99.2448 110.09 98.8594 109.215C98.474 108.34 98.2812 107.335 98.2812 106.199C98.2812 105.033 98.4688 104.027 98.8438 103.184C99.2292 102.329 99.7812 101.668 100.5 101.199C101.219 100.73 102.078 100.496 103.078 100.496C103.391 100.496 103.667 100.512 103.906 100.543C104.146 100.574 104.359 100.616 104.547 100.668C104.734 100.72 104.901 100.783 105.047 100.855H109.297V102.402L107 102.684C107.292 103.152 107.505 103.689 107.641 104.293C107.776 104.887 107.844 105.491 107.844 106.105C107.844 107.866 107.427 109.251 106.594 110.262C105.76 111.262 104.583 111.762 103.062 111.762C102.594 111.762 102.219 111.715 101.938 111.621C101.656 111.882 101.406 112.178 101.188 112.512C100.979 112.845 100.875 113.257 100.875 113.746C100.875 114.048 100.943 114.314 101.078 114.543C101.224 114.772 101.432 114.949 101.703 115.074C101.974 115.199 102.307 115.262 102.703 115.262H105.172C106.453 115.262 107.438 115.632 108.125 116.371C108.823 117.111 109.172 118.236 109.172 119.746C109.172 121.621 108.604 123.074 107.469 124.105C106.344 125.137 104.719 125.652 102.594 125.652ZM102.781 123.746C103.688 123.746 104.443 123.605 105.047 123.324C105.661 123.053 106.12 122.637 106.422 122.074C106.734 121.512 106.891 120.814 106.891 119.98C106.891 119.303 106.781 118.783 106.562 118.418C106.354 118.053 106.052 117.803 105.656 117.668C105.26 117.533 104.786 117.465 104.234 117.465H102.188C101.708 117.465 101.271 117.574 100.875 117.793C100.49 118.001 100.182 118.34 99.9531 118.809C99.724 119.277 99.6094 119.902 99.6094 120.684C99.6094 121.694 99.8906 122.454 100.453 122.965C101.026 123.486 101.802 123.746 102.781 123.746ZM103.078 109.98C103.828 109.98 104.406 109.658 104.812 109.012C105.229 108.366 105.438 107.418 105.438 106.168C105.438 104.855 105.224 103.876 104.797 103.23C104.38 102.585 103.797 102.262 103.047 102.262C102.318 102.262 101.745 102.611 101.328 103.309C100.911 103.996 100.703 104.965 100.703 106.215C100.703 107.413 100.901 108.34 101.297 108.996C101.693 109.652 102.286 109.98 103.078 109.98Z" fill="#F7F7F7"/>
<path d="M116.266 100.527C117.432 100.527 118.391 100.866 119.141 101.543C119.901 102.22 120.464 103.132 120.828 104.277C121.203 105.423 121.391 106.699 121.391 108.105V109.809H113.219C113.24 111.944 113.568 113.548 114.203 114.621C114.849 115.694 115.818 116.23 117.109 116.23C117.724 116.23 118.328 116.137 118.922 115.949C119.516 115.762 120.13 115.46 120.766 115.043V117.199C120.172 117.564 119.552 117.835 118.906 118.012C118.26 118.189 117.573 118.277 116.844 118.277C115.417 118.277 114.26 117.897 113.375 117.137C112.49 116.366 111.844 115.319 111.438 113.996C111.042 112.663 110.844 111.158 110.844 109.48C110.844 107.564 111.047 105.939 111.453 104.605C111.859 103.272 112.464 102.262 113.266 101.574C114.078 100.876 115.078 100.527 116.266 100.527ZM116.266 102.496C115.359 102.496 114.651 102.939 114.141 103.824C113.63 104.699 113.333 106.053 113.25 107.887H119.141C119.141 106.918 119.036 106.027 118.828 105.215C118.63 104.392 118.318 103.736 117.891 103.246C117.474 102.746 116.932 102.496 116.266 102.496Z" fill="#F7F7F7"/>
<path d="M131 117.965V95.1211H133.484V117.965H131Z" fill="#F7F7F7"/>
<path d="M144.062 100.496C145.417 100.496 146.443 100.97 147.141 101.918C147.839 102.866 148.188 104.319 148.188 106.277V117.965H145.781V106.762C145.781 105.376 145.599 104.34 145.234 103.652C144.88 102.965 144.318 102.621 143.547 102.621C142.422 102.621 141.599 103.121 141.078 104.121C140.557 105.121 140.297 106.725 140.297 108.934V117.965H137.891V100.809H139.812L140.078 103.293H140.234C140.474 102.72 140.781 102.225 141.156 101.809C141.531 101.392 141.964 101.069 142.453 100.84C142.943 100.611 143.479 100.496 144.062 100.496Z" fill="#F7F7F7"/>
<path d="M157.719 102.84H155.016V117.965H152.625V102.84H150.516V101.543L152.625 100.73V99.5742C152.625 98.2721 152.734 97.168 152.953 96.2617C153.182 95.3555 153.573 94.668 154.125 94.1992C154.688 93.7201 155.458 93.4805 156.438 93.4805C156.896 93.4805 157.318 93.5221 157.703 93.6055C158.099 93.6888 158.505 93.8138 158.922 93.9805L158.297 95.918C158.005 95.8138 157.729 95.7357 157.469 95.6836C157.219 95.6211 156.969 95.5898 156.719 95.5898C156.073 95.5898 155.63 95.8763 155.391 96.4492C155.161 97.0117 155.036 98.0326 155.016 99.5117V100.809H157.719V102.84Z" fill="#F7F7F7"/>
<path d="M170.938 109.371C170.938 110.725 170.823 111.949 170.594 113.043C170.365 114.137 170.016 115.074 169.547 115.855C169.078 116.637 168.484 117.236 167.766 117.652C167.047 118.069 166.198 118.277 165.219 118.277C164.281 118.277 163.458 118.069 162.75 117.652C162.042 117.236 161.453 116.642 160.984 115.871C160.516 115.09 160.161 114.152 159.922 113.059C159.682 111.954 159.562 110.725 159.562 109.371C159.562 107.475 159.766 105.871 160.172 104.559C160.578 103.236 161.203 102.23 162.047 101.543C162.891 100.845 163.964 100.496 165.266 100.496C166.484 100.496 167.516 100.835 168.359 101.512C169.203 102.178 169.844 103.173 170.281 104.496C170.719 105.809 170.938 107.434 170.938 109.371ZM162.016 109.371C162.016 110.861 162.13 112.111 162.359 113.121C162.589 114.132 162.943 114.892 163.422 115.402C163.911 115.913 164.531 116.168 165.281 116.168C166.021 116.168 166.625 115.918 167.094 115.418C167.573 114.918 167.927 114.168 168.156 113.168C168.385 112.158 168.5 110.892 168.5 109.371C168.5 107.882 168.385 106.637 168.156 105.637C167.927 104.626 167.573 103.871 167.094 103.371C166.625 102.861 166.016 102.605 165.266 102.605C164.12 102.605 163.292 103.173 162.781 104.309C162.271 105.434 162.016 107.121 162.016 109.371Z" fill="#F7F7F7"/>
<path d="M180.125 100.512C180.365 100.512 180.604 100.533 180.844 100.574C181.083 100.605 181.333 100.663 181.594 100.746L181.219 103.215C181.031 103.132 180.833 103.074 180.625 103.043C180.417 103.012 180.193 102.996 179.953 102.996C179.484 102.996 179.052 103.152 178.656 103.465C178.271 103.767 177.938 104.194 177.656 104.746C177.375 105.298 177.156 105.939 177 106.668C176.854 107.397 176.786 108.184 176.797 109.027V117.965H174.391V100.809H176.266L176.594 103.855H176.75C176.99 103.199 177.271 102.621 177.594 102.121C177.917 101.621 178.286 101.23 178.703 100.949C179.13 100.658 179.604 100.512 180.125 100.512Z" fill="#F7F7F7"/>
<path d="M197.453 100.496C198.797 100.496 199.792 100.986 200.438 101.965C201.094 102.934 201.422 104.413 201.422 106.402V117.965H199.016V106.824C199.016 105.324 198.823 104.251 198.438 103.605C198.062 102.949 197.516 102.621 196.797 102.621C195.755 102.621 195.01 103.111 194.562 104.09C194.115 105.069 193.891 106.486 193.891 108.34V117.965H191.516V106.793C191.516 105.772 191.432 104.96 191.266 104.355C191.099 103.741 190.849 103.298 190.516 103.027C190.193 102.757 189.781 102.621 189.281 102.621C188.51 102.621 187.917 102.887 187.5 103.418C187.083 103.949 186.792 104.678 186.625 105.605C186.469 106.533 186.391 107.59 186.391 108.777V117.965H183.984V100.809H185.906L186.188 103.246H186.328C186.547 102.663 186.828 102.168 187.172 101.762C187.516 101.355 187.922 101.043 188.391 100.824C188.87 100.605 189.406 100.496 190 100.496C190.99 100.496 191.766 100.767 192.328 101.309C192.901 101.84 193.281 102.512 193.469 103.324H193.641C194.036 102.366 194.531 101.658 195.125 101.199C195.719 100.73 196.495 100.496 197.453 100.496Z" fill="#F7F7F7"/>
<path d="M210.141 100.496C211.724 100.496 212.854 101.001 213.531 102.012C214.208 103.022 214.547 104.486 214.547 106.402V117.965H212.719L212.359 115.527H212.297C212.026 116.111 211.703 116.611 211.328 117.027C210.953 117.434 210.526 117.746 210.047 117.965C209.568 118.173 209.016 118.277 208.391 118.277C207.505 118.277 206.781 118.043 206.219 117.574C205.656 117.105 205.24 116.491 204.969 115.73C204.698 114.96 204.562 114.132 204.562 113.246C204.562 111.548 205.052 110.23 206.031 109.293C207.01 108.355 208.401 107.845 210.203 107.762L212.156 107.637V106.465C212.156 105.09 211.969 104.085 211.594 103.449C211.219 102.814 210.615 102.496 209.781 102.496C209.302 102.496 208.797 102.579 208.266 102.746C207.745 102.913 207.177 103.178 206.562 103.543L205.797 101.73C206.443 101.314 207.13 101.007 207.859 100.809C208.599 100.6 209.359 100.496 210.141 100.496ZM212.188 109.402L210.594 109.512C209.385 109.585 208.484 109.928 207.891 110.543C207.307 111.147 207.016 112.027 207.016 113.184C207.016 114.257 207.208 115.048 207.594 115.559C207.979 116.069 208.51 116.324 209.188 116.324C210.135 116.324 210.87 115.866 211.391 114.949C211.922 114.033 212.188 112.767 212.188 111.152V109.402Z" fill="#F7F7F7"/>
<path d="M222.734 116.152C222.995 116.152 223.255 116.126 223.516 116.074C223.776 116.012 224.026 115.928 224.266 115.824V117.793C223.943 117.939 223.594 118.053 223.219 118.137C222.844 118.23 222.427 118.277 221.969 118.277C221.229 118.277 220.62 118.111 220.141 117.777C219.672 117.444 219.323 116.949 219.094 116.293C218.875 115.626 218.766 114.793 218.766 113.793V102.824H217.172V101.512L218.875 100.871L219.516 96.918H221.172V100.809H224.078V102.824H221.172V113.512C221.172 114.397 221.276 115.059 221.484 115.496C221.703 115.934 222.12 116.152 222.734 116.152Z" fill="#F7F7F7"/>
<path d="M229.25 100.809V117.965H226.859V100.809H229.25ZM228.094 94.3711C228.583 94.3711 228.938 94.5273 229.156 94.8398C229.385 95.1523 229.5 95.5846 229.5 96.1367C229.5 96.6784 229.38 97.1055 229.141 97.418C228.901 97.7305 228.552 97.8867 228.094 97.8867C227.646 97.8867 227.292 97.7305 227.031 97.418C226.771 97.1055 226.641 96.6784 226.641 96.1367C226.641 95.5638 226.766 95.1263 227.016 94.8242C227.266 94.5221 227.625 94.3711 228.094 94.3711Z" fill="#F7F7F7"/>
<path d="M241.531 125.621V118.371C241.531 118.038 241.542 117.621 241.562 117.121C241.583 116.621 241.615 116.059 241.656 115.434H241.531C241.083 116.371 240.536 117.079 239.891 117.559C239.255 118.038 238.505 118.277 237.641 118.277C236.068 118.277 234.854 117.533 234 116.043C233.146 114.553 232.719 112.366 232.719 109.48C232.719 107.501 232.917 105.85 233.312 104.527C233.719 103.194 234.297 102.189 235.047 101.512C235.797 100.835 236.698 100.496 237.75 100.496C238.594 100.496 239.323 100.715 239.938 101.152C240.552 101.59 241.078 102.272 241.516 103.199H241.656L241.922 100.809H243.938V125.621H241.531ZM238.297 116.168C238.995 116.168 239.583 115.944 240.062 115.496C240.542 115.038 240.906 114.371 241.156 113.496C241.406 112.611 241.531 111.522 241.531 110.23V109.137C241.531 106.908 241.26 105.267 240.719 104.215C240.188 103.163 239.354 102.637 238.219 102.637C237.177 102.637 236.406 103.225 235.906 104.402C235.417 105.579 235.172 107.277 235.172 109.496C235.172 111.819 235.432 113.512 235.953 114.574C236.474 115.637 237.255 116.168 238.297 116.168Z" fill="#F7F7F7"/>
<path d="M258.344 100.809V117.965H256.422L256.156 115.527H255.984C255.755 116.09 255.453 116.579 255.078 116.996C254.714 117.402 254.292 117.72 253.812 117.949C253.333 118.168 252.797 118.277 252.203 118.277C251.203 118.277 250.396 118.027 249.781 117.527C249.177 117.027 248.734 116.314 248.453 115.387C248.182 114.46 248.047 113.355 248.047 112.074V100.809H250.453V111.621C250.453 113.163 250.63 114.298 250.984 115.027C251.349 115.757 251.901 116.121 252.641 116.121C253.443 116.121 254.083 115.902 254.562 115.465C255.042 115.017 255.391 114.345 255.609 113.449C255.828 112.543 255.938 111.397 255.938 110.012V100.809H258.344Z" fill="#F7F7F7"/>
<path d="M267.266 100.527C268.432 100.527 269.391 100.866 270.141 101.543C270.901 102.22 271.464 103.132 271.828 104.277C272.203 105.423 272.391 106.699 272.391 108.105V109.809H264.219C264.24 111.944 264.568 113.548 265.203 114.621C265.849 115.694 266.818 116.23 268.109 116.23C268.724 116.23 269.328 116.137 269.922 115.949C270.516 115.762 271.13 115.46 271.766 115.043V117.199C271.172 117.564 270.552 117.835 269.906 118.012C269.26 118.189 268.573 118.277 267.844 118.277C266.417 118.277 265.26 117.897 264.375 117.137C263.49 116.366 262.844 115.319 262.438 113.996C262.042 112.663 261.844 111.158 261.844 109.48C261.844 107.564 262.047 105.939 262.453 104.605C262.859 103.272 263.464 102.262 264.266 101.574C265.078 100.876 266.078 100.527 267.266 100.527ZM267.266 102.496C266.359 102.496 265.651 102.939 265.141 103.824C264.63 104.699 264.333 106.053 264.25 107.887H270.141C270.141 106.918 270.036 106.027 269.828 105.215C269.63 104.392 269.318 103.736 268.891 103.246C268.474 102.746 267.932 102.496 267.266 102.496Z" fill="#F7F7F7"/>
<path d="M293.484 95.1211L287.969 117.965H285.094L279.641 95.1211H282.234L285.781 110.902C285.885 111.34 285.979 111.803 286.062 112.293C286.156 112.772 286.24 113.257 286.312 113.746C286.396 114.225 286.469 114.689 286.531 115.137C286.594 114.689 286.661 114.225 286.734 113.746C286.818 113.267 286.906 112.783 287 112.293C287.104 111.803 287.208 111.324 287.312 110.855L290.891 95.1211H293.484Z" fill="#F7F7F7"/>
<path d="M300.297 100.527C301.464 100.527 302.422 100.866 303.172 101.543C303.932 102.22 304.495 103.132 304.859 104.277C305.234 105.423 305.422 106.699 305.422 108.105V109.809H297.25C297.271 111.944 297.599 113.548 298.234 114.621C298.88 115.694 299.849 116.23 301.141 116.23C301.755 116.23 302.359 116.137 302.953 115.949C303.547 115.762 304.161 115.46 304.797 115.043V117.199C304.203 117.564 303.583 117.835 302.938 118.012C302.292 118.189 301.604 118.277 300.875 118.277C299.448 118.277 298.292 117.897 297.406 117.137C296.521 116.366 295.875 115.319 295.469 113.996C295.073 112.663 294.875 111.158 294.875 109.48C294.875 107.564 295.078 105.939 295.484 104.605C295.891 103.272 296.495 102.262 297.297 101.574C298.109 100.876 299.109 100.527 300.297 100.527ZM300.297 102.496C299.391 102.496 298.682 102.939 298.172 103.824C297.661 104.699 297.365 106.053 297.281 107.887H303.172C303.172 106.918 303.068 106.027 302.859 105.215C302.661 104.392 302.349 103.736 301.922 103.246C301.505 102.746 300.964 102.496 300.297 102.496Z" fill="#F7F7F7"/>
<path d="M316.453 113.434C316.453 114.465 316.266 115.345 315.891 116.074C315.516 116.793 314.969 117.34 314.25 117.715C313.542 118.09 312.677 118.277 311.656 118.277C310.865 118.277 310.141 118.184 309.484 117.996C308.828 117.809 308.271 117.585 307.812 117.324V114.824C308.271 115.199 308.839 115.512 309.516 115.762C310.193 116.001 310.88 116.121 311.578 116.121C312.38 116.121 312.995 115.892 313.422 115.434C313.859 114.975 314.078 114.335 314.078 113.512C314.078 113.022 313.99 112.6 313.812 112.246C313.635 111.882 313.349 111.538 312.953 111.215C312.568 110.882 312.057 110.533 311.422 110.168C310.714 109.73 310.083 109.277 309.531 108.809C308.99 108.34 308.568 107.803 308.266 107.199C307.964 106.585 307.812 105.84 307.812 104.965C307.812 103.632 308.245 102.553 309.109 101.73C309.984 100.908 311.135 100.496 312.562 100.496C313.281 100.496 313.958 100.59 314.594 100.777C315.24 100.954 315.849 101.225 316.422 101.59L315.516 103.527C315.078 103.225 314.609 102.986 314.109 102.809C313.62 102.632 313.115 102.543 312.594 102.543C311.833 102.543 311.229 102.757 310.781 103.184C310.344 103.611 310.125 104.184 310.125 104.902C310.125 105.382 310.214 105.793 310.391 106.137C310.568 106.48 310.859 106.814 311.266 107.137C311.672 107.46 312.208 107.824 312.875 108.23C313.583 108.678 314.203 109.137 314.734 109.605C315.276 110.064 315.698 110.595 316 111.199C316.302 111.803 316.453 112.548 316.453 113.434Z" fill="#F7F7F7"/>
<path d="M330.219 109.371C330.219 110.725 330.104 111.949 329.875 113.043C329.646 114.137 329.297 115.074 328.828 115.855C328.359 116.637 327.766 117.236 327.047 117.652C326.328 118.069 325.479 118.277 324.5 118.277C323.562 118.277 322.74 118.069 322.031 117.652C321.323 117.236 320.734 116.642 320.266 115.871C319.797 115.09 319.443 114.152 319.203 113.059C318.964 111.954 318.844 110.725 318.844 109.371C318.844 107.475 319.047 105.871 319.453 104.559C319.859 103.236 320.484 102.23 321.328 101.543C322.172 100.845 323.245 100.496 324.547 100.496C325.766 100.496 326.797 100.835 327.641 101.512C328.484 102.178 329.125 103.173 329.562 104.496C330 105.809 330.219 107.434 330.219 109.371ZM321.297 109.371C321.297 110.861 321.411 112.111 321.641 113.121C321.87 114.132 322.224 114.892 322.703 115.402C323.193 115.913 323.812 116.168 324.562 116.168C325.302 116.168 325.906 115.918 326.375 115.418C326.854 114.918 327.208 114.168 327.438 113.168C327.667 112.158 327.781 110.892 327.781 109.371C327.781 107.882 327.667 106.637 327.438 105.637C327.208 104.626 326.854 103.871 326.375 103.371C325.906 102.861 325.297 102.605 324.547 102.605C323.401 102.605 322.573 103.173 322.062 104.309C321.552 105.434 321.297 107.121 321.297 109.371Z" fill="#F7F7F7"/>
<path d="M343.906 100.809V117.965H341.984L341.719 115.527H341.547C341.318 116.09 341.016 116.579 340.641 116.996C340.276 117.402 339.854 117.72 339.375 117.949C338.896 118.168 338.359 118.277 337.766 118.277C336.766 118.277 335.958 118.027 335.344 117.527C334.74 117.027 334.297 116.314 334.016 115.387C333.745 114.46 333.609 113.355 333.609 112.074V100.809H336.016V111.621C336.016 113.163 336.193 114.298 336.547 115.027C336.911 115.757 337.464 116.121 338.203 116.121C339.005 116.121 339.646 115.902 340.125 115.465C340.604 115.017 340.953 114.345 341.172 113.449C341.391 112.543 341.5 111.397 341.5 110.012V100.809H343.906Z" fill="#F7F7F7"/>
<path d="M350.516 117.965H348.109V93.6523H350.516V117.965Z" fill="#F7F7F7"/>
</g>
<defs>
<clipPath id="clip0_149_227">
<rect width="350.516" height="125.652" fill="white"/>
</clipPath>
</defs>
</svg>
